<svg width="10" height="10" viewBox="0 0 10 10" fill="none" xmlns="http://www.w3.org/2000/svg">
<path d="M5.5 0.5C5.5 0.223858 5.27614 0 5 0C4.72386 0 4.5 0.223858 4.5 0.5V5.29289L2.85355 3.64645C2.65829 3.45118 2.34171 3.45118 2.14645 3.64645C1.95118 3.84171 1.95118 4.15829 2.14645 4.35355L4.64609 6.8532C4.6473 6.8544 4.64851 6.85561 4.64973 6.8568C4.6969 6.90313 4.75098 6.93821 4.80861 6.96206C4.86713 6.98633 4.93125 6.9998 4.9985 7L5 7L5.0015 7C5.13732 6.9996 5.26039 6.94505 5.35027 6.8568C5.35149 6.85561 5.3527 6.8544 5.35391 6.8532L7.85355 4.35355C8.04882 4.15829 8.04882 3.84171 7.85355 3.64645C7.65829 3.45118 7.34171 3.45118 7.14645 3.64645L5.5 5.29289V0.5Z" fill="#31B5FF"/>
<path d="M0.5 6C0.776142 6 1 6.22386 1 6.5V8.5C1 8.63261 1.05268 8.75978 1.14645 8.85355C1.24021 8.94732 1.36739 9 1.5 9H8.5C8.63261 9 8.75978 8.94732 8.85355 8.85355C8.94732 8.75978 9 8.63261 9 8.5V6.5C9 6.22386 9.22386 6 9.5 6C9.77614 6 10 6.22386 10 6.5V8.5C10 8.89783 9.84196 9.27936 9.56066 9.56066C9.27936 9.84196 8.89783 10 8.5 10H1.5C1.10217 10 0.720644 9.84196 0.43934 9.56066C0.158035 9.27936 0 8.89783 0 8.5V6.5C0 6.22386 0.223858 6 0.5 6Z" fill="#31B5FF"/>
</svg>
