<svg width="25" height="29" viewBox="0 0 25 29" fill="none" xmlns="http://www.w3.org/2000/svg">
<path d="M12.6301 16.8881H10.6666C10.5547 16.8897 10.4467 16.8474 10.3659 16.7701C10.3286 16.7344 10.2999 16.6906 10.2821 16.642C10.2643 16.5935 10.2578 16.5416 10.2632 16.4902L10.4369 14.7192C10.4538 14.5304 10.6295 14.3854 10.8396 14.386H12.8037C12.9186 14.386 13.0267 14.4285 13.1044 14.5047C13.1808 14.5803 13.2186 14.6821 13.2071 14.7839L13.0335 16.5556C13.0166 16.7445 12.8409 16.8888 12.6301 16.8881ZM12.945 13.4196H10.945C10.8933 13.4206 10.842 13.4114 10.7939 13.3926C10.7458 13.3737 10.7019 13.3457 10.6647 13.3099C10.6275 13.2741 10.5977 13.2314 10.5771 13.1841C10.5564 13.1369 10.5453 13.086 10.5443 13.0345L11.0889 7.04903C11.1024 6.95343 11.1506 6.8661 11.2243 6.80358C11.2981 6.74106 11.3922 6.70769 11.4889 6.7098H13.4889C13.7098 6.7098 13.8895 6.88245 13.8895 7.09489L13.3287 13.0837C13.3149 13.176 13.2687 13.2603 13.1984 13.3218C13.1282 13.3833 13.0384 13.4179 12.945 13.4196ZM24.7069 6.44003L19.5259 0.424892C19.4111 0.291557 19.2687 0.184562 19.1086 0.11123C18.9485 0.0378971 18.7744 -4.20981e-05 18.5982 8.46096e-06H3.0816C2.7796 -0.00111546 2.48794 0.109769 2.26322 0.311149C2.03849 0.51253 1.89672 0.790049 1.8654 1.08987L0.00461573 22.1857C-0.0251135 22.5249 0.0897496 22.8601 0.320827 23.1117C0.435516 23.2356 0.574706 23.3345 0.72961 23.4021C0.884514 23.4696 1.05177 23.5044 1.22081 23.5042H4.26806L3.80456 29L9.79703 23.5082H16.6037C16.9212 23.5082 17.2267 23.3868 17.455 23.1663L23.8482 16.992C24.059 16.7883 24.1887 16.5165 24.2137 16.2252L24.9954 7.33363C25.0094 7.17301 24.9911 7.01122 24.9416 6.85776C24.892 6.7043 24.8123 6.56228 24.7069 6.44003ZM19.9685 14.529C19.9441 14.8215 19.8143 15.0951 19.603 15.2992L15.9017 18.8041C15.6738 19.0196 15.3716 19.1394 15.0578 19.1387H6.00385C5.83545 19.1366 5.66925 19.1002 5.51543 19.0318C5.36161 18.9634 5.2234 18.8644 5.10927 18.7407C4.99537 18.6175 4.90806 18.4721 4.85273 18.3138C4.79741 18.1554 4.77526 17.9874 4.78765 17.8202L5.88358 5.46954C5.9149 5.16972 6.05667 4.8922 6.2814 4.69082C6.50612 4.48944 6.79778 4.37856 7.09978 4.37968H16.3077C16.6604 4.37968 16.9969 4.5321 17.228 4.79782L20.1509 8.15373C20.3712 8.39517 20.4847 8.71484 20.4651 9.03991L19.9685 14.5283V14.529Z" fill="#31B5FF"/>
</svg>
