<svg width="20" height="20" viewBox="0 0 20 20" fill="none" xmlns="http://www.w3.org/2000/svg">
<path d="M16.1538 0H3.84615C2.82609 0 1.84781 0.405219 1.12651 1.12651C0.405219 1.84781 0 2.82609 0 3.84615V16.1538C0 17.1739 0.405219 18.1522 1.12651 18.8735C1.84781 19.5948 2.82609 20 3.84615 20H10C10.204 20 10.3997 19.919 10.5439 19.7747C10.6882 19.6304 10.7692 19.4348 10.7692 19.2308V13.0769C10.7692 12.8729 10.6882 12.6773 10.5439 12.533C10.3997 12.3887 10.204 12.3077 10 12.3077H9.23077V10.7692H10C10.204 10.7692 10.3997 10.6882 10.5439 10.5439C10.6882 10.3997 10.7692 10.204 10.7692 10V7.30769C10.7692 6.79766 10.9718 6.30852 11.3325 5.94787C11.6931 5.58722 12.1823 5.38462 12.6923 5.38462H14.6154V6.92308H13.8462C13.4381 6.92308 13.0468 7.08517 12.7583 7.37368C12.4698 7.6622 12.3077 8.05351 12.3077 8.46154V10C12.3077 10.204 12.3887 10.3997 12.533 10.5439C12.6773 10.6882 12.8729 10.7692 13.0769 10.7692H14.4L14.0154 12.3077H13.0769C12.8729 12.3077 12.6773 12.3887 12.533 12.533C12.3887 12.6773 12.3077 12.8729 12.3077 13.0769V16.1538C12.3077 16.3579 12.3887 16.5535 12.533 16.6978C12.6773 16.842 12.8729 16.9231 13.0769 16.9231C13.2809 16.9231 13.4766 16.842 13.6209 16.6978C13.7651 16.5535 13.8462 16.3579 13.8462 16.1538V13.8462H14.6154C14.7911 13.8513 14.9633 13.7961 15.1032 13.6897C15.2432 13.5833 15.3425 13.4322 15.3846 13.2615L16.1538 10.1846C16.1827 10.0711 16.1852 9.95247 16.1612 9.83782C16.1372 9.72318 16.0873 9.61553 16.0154 9.52308C15.9406 9.42826 15.8445 9.35238 15.7349 9.3016C15.6253 9.25082 15.5053 9.22655 15.3846 9.23077H13.8462V8.46154H15.3846C15.5886 8.46154 15.7843 8.3805 15.9285 8.23624C16.0728 8.09198 16.1538 7.89632 16.1538 7.69231V4.61538C16.1538 4.41137 16.0728 4.21572 15.9285 4.07146C15.7843 3.9272 15.5886 3.84615 15.3846 3.84615H12.6923C11.7749 3.84819 10.8956 4.21353 10.2469 4.86226C9.59815 5.51098 9.2328 6.39026 9.23077 7.30769V9.23077H8.46154C8.25753 9.23077 8.06187 9.31181 7.91761 9.45607C7.77335 9.60033 7.69231 9.79599 7.69231 10V13.0769C7.69231 13.2809 7.77335 13.4766 7.91761 13.6209C8.06187 13.7651 8.25753 13.8462 8.46154 13.8462H9.23077V18.4615H3.84615C3.23412 18.4615 2.64715 18.2184 2.21437 17.7856C1.78159 17.3529 1.53846 16.7659 1.53846 16.1538V3.84615C1.53846 3.23412 1.78159 2.64715 2.21437 2.21437C2.64715 1.78159 3.23412 1.53846 3.84615 1.53846H16.1538C16.7659 1.53846 17.3529 1.78159 17.7856 2.21437C18.2184 2.64715 18.4615 3.23412 18.4615 3.84615V16.1538C18.4615 16.7659 18.2184 17.3529 17.7856 17.7856C17.3529 18.2184 16.7659 18.4615 16.1538 18.4615H13.0769C12.8729 18.4615 12.6773 18.5426 12.533 18.6868C12.3887 18.8311 12.3077 19.0268 12.3077 19.2308C12.3077 19.4348 12.3887 19.6304 12.533 19.7747C12.6773 19.919 12.8729 20 13.0769 20H16.1538C17.1739 20 18.1522 19.5948 18.8735 18.8735C19.5948 18.1522 20 17.1739 20 16.1538V3.84615C20 2.82609 19.5948 1.84781 18.8735 1.12651C18.1522 0.405219 17.1739 0 16.1538 0Z" fill="white"/>
</svg>
