<svg width="20" height="21" viewBox="0 0 20 21" fill="none" xmlns="http://www.w3.org/2000/svg">
<path d="M10 0.5C7.28416 0.5 6.94362 0.511512 5.87701 0.560178C4.81263 0.608764 4.08569 0.777786 3.44958 1.02501C2.79199 1.28056 2.23432 1.6225 1.67839 2.17843C1.12246 2.73436 0.780524 3.29203 0.524967 3.94962C0.277746 4.58569 0.108725 5.31263 0.060138 6.37701C0.0114719 7.44362 0 7.78416 0 10.5C0 13.2158 0.0114719 13.5564 0.060138 14.623C0.108725 15.6874 0.277746 16.4143 0.524967 17.0504C0.780524 17.708 1.12246 18.2656 1.67839 18.8216C2.23432 19.3775 2.79199 19.7195 3.44958 19.975C4.08569 20.2222 4.81263 20.3913 5.87701 20.4398C6.94362 20.4885 7.28416 20.5 10 20.5C12.7158 20.5 13.0564 20.4885 14.123 20.4398C15.1874 20.3913 15.9143 20.2222 16.5504 19.975C17.208 19.7195 17.7656 19.3775 18.3216 18.8216C18.8775 18.2656 19.2195 17.708 19.475 17.0504C19.7222 16.4143 19.8913 15.6874 19.9398 14.623C19.9885 13.5564 20 13.2158 20 10.5C20 7.78416 19.9885 7.44362 19.9398 6.37701C19.8913 5.31263 19.7222 4.58569 19.475 3.94962C19.2195 3.29203 18.8775 2.73436 18.3216 2.17843C17.7656 1.6225 17.208 1.28056 16.5504 1.02501C15.9143 0.777786 15.1874 0.608764 14.123 0.560178C13.0564 0.511512 12.7158 0.5 10 0.5ZM10 2.30184C12.6701 2.30184 12.9864 2.312 14.0409 2.36011C15.0158 2.40461 15.5453 2.56752 15.8977 2.70443C16.3645 2.88583 16.6976 3.10257 17.0475 3.45248C17.3975 3.80239 17.6142 4.13555 17.7956 4.60229C17.9325 4.95466 18.0954 5.48415 18.1399 6.45914C18.188 7.5136 18.1982 7.82989 18.1982 10.5C18.1982 13.1701 18.188 13.4864 18.1399 14.5409C18.0954 15.5158 17.9325 16.0453 17.7956 16.3977C17.6142 16.8645 17.3975 17.1976 17.0475 17.5475C16.6976 17.8975 16.3645 18.1142 15.8977 18.2956C15.5453 18.4325 15.0158 18.5954 14.0409 18.6399C12.9866 18.688 12.6703 18.6982 10 18.6982C7.32969 18.6982 7.01348 18.688 5.95914 18.6399C4.98415 18.5954 4.45466 18.4325 4.10229 18.2956C3.63551 18.1142 3.30239 17.8975 2.95244 17.5475C2.60253 17.1976 2.38579 16.8645 2.20443 16.3977C2.06748 16.0453 1.90457 15.5158 1.86007 14.5409C1.81196 13.4864 1.8018 13.1701 1.8018 10.5C1.8018 7.82989 1.81196 7.5136 1.86007 6.45914C1.90457 5.48415 2.06748 4.95466 2.20443 4.60229C2.38579 4.13555 2.60253 3.80239 2.95244 3.45248C3.30239 3.10257 3.63551 2.88583 4.10229 2.70443C4.45466 2.56752 4.98415 2.40461 5.95914 2.36011C7.0136 2.312 7.32989 2.30184 10 2.30184Z" fill="#31B5FF"/>
<path d="M9.99996 13.8337C8.15898 13.8337 6.66661 12.3413 6.66661 10.5003C6.66661 8.65936 8.15898 7.16699 9.99996 7.16699C11.8409 7.16699 13.3333 8.65936 13.3333 10.5003C13.3333 12.3413 11.8409 13.8337 9.99996 13.8337ZM9.99996 5.36519C7.16387 5.36519 4.86481 7.66425 4.86481 10.5003C4.86481 13.3364 7.16387 15.6355 9.99996 15.6355C12.836 15.6355 15.1351 13.3364 15.1351 10.5003C15.1351 7.66425 12.836 5.36519 9.99996 5.36519Z" fill="#31B5FF"/>
<path d="M16.5379 5.16182C16.5379 5.82457 16.0007 6.36181 15.3379 6.36181C14.6752 6.36181 14.1379 5.82457 14.1379 5.16182C14.1379 4.49908 14.6752 3.96184 15.3379 3.96184C16.0007 3.96184 16.5379 4.49908 16.5379 5.16182Z" fill="#31B5FF"/>
</svg>
