<svg width="26" height="27" viewBox="0 0 26 27" fill="none" xmlns="http://www.w3.org/2000/svg">
<path d="M20.1253 9.1248C20.6557 9.1248 20.7661 9.396 20.6557 9.768C20.4471 10.7212 18.5721 13.4059 18.3295 13.7532C18.3125 13.7775 18.3037 13.7904 18.3037 13.7904C18.1189 14.0856 18.0445 14.2344 18.3037 14.568C18.3948 14.6957 18.5895 14.8863 18.8124 15.1046C19.042 15.3293 19.3015 15.5833 19.5085 15.828C20.2597 16.6752 20.8261 17.388 20.9845 17.88C21.1285 18.3744 20.8789 18.624 20.3797 18.624H18.6301C18.1613 18.624 17.9247 18.3609 17.4142 17.7932C17.1981 17.5529 16.933 17.2581 16.5805 16.9056C15.5437 15.9048 15.0973 15.7752 14.8381 15.7752C14.4853 15.7752 14.3797 15.876 14.3797 16.3752V17.9448C14.3797 18.3768 14.2405 18.6264 13.1293 18.6264C11.2741 18.6264 9.2389 17.5008 7.7917 15.4248C5.6221 12.384 5.0293 10.0848 5.0293 9.6216C5.0293 9.3624 5.1301 9.1272 5.6293 9.1272H7.3789C7.8253 9.1272 7.9933 9.3216 8.1613 9.8064C9.0181 12.3 10.4605 14.4792 11.0533 14.4792C11.2741 14.4792 11.3773 14.376 11.3773 13.812V11.2344C11.3372 10.4999 11.0807 10.1828 10.8906 9.94796C10.7733 9.80294 10.6813 9.68925 10.6813 9.528C10.6813 9.3312 10.8493 9.1248 11.1277 9.1248H13.8781C14.2477 9.1248 14.3773 9.324 14.3773 9.768V13.2336C14.3773 13.6056 14.5381 13.7352 14.6485 13.7352C14.8717 13.7352 15.0565 13.6056 15.4645 13.1976C16.7245 11.7888 17.6149 9.6192 17.6149 9.6192C17.7253 9.36 17.9317 9.1248 18.3757 9.1248H20.1253Z" fill="#31B5FF"/>
<path fill-rule="evenodd" clip-rule="evenodd" d="M13 26.5C5.8214 26.5 0 20.6786 0 13.5C0 6.3214 5.8214 0.5 13 0.5C20.1786 0.5 26 6.3214 26 13.5C26 20.6786 20.1786 26.5 13 26.5ZM13 25C6.64983 25 1.5 19.8502 1.5 13.5C1.5 7.14983 6.64983 2 13 2C19.3502 2 24.5 7.14983 24.5 13.5C24.5 19.8502 19.3502 25 13 25Z" fill="#31B5FF"/>
</svg>
