<svg width="26" height="26" viewBox="0 0 26 26" fill="none" xmlns="http://www.w3.org/2000/svg">
<path d="M20.1255 8.62482C20.6559 8.62482 20.7663 8.89602 20.6559 9.26802C20.4474 10.2213 18.5724 12.9059 18.3298 13.2532C18.3128 13.2776 18.3039 13.2904 18.3039 13.2904C18.1191 13.5856 18.0447 13.7344 18.3039 14.068C18.395 14.1957 18.5897 14.3863 18.8127 14.6046C19.0423 14.8293 19.3018 15.0833 19.5088 15.328C20.26 16.1752 20.8264 16.888 20.9848 17.38C21.1288 17.8744 20.8791 18.124 20.3799 18.124H18.6303C18.1615 18.124 17.925 17.861 17.4144 17.2932C17.1984 17.0529 16.9333 16.7581 16.5807 16.4056C15.5439 15.4048 15.0975 15.2752 14.8383 15.2752C14.4855 15.2752 14.3799 15.376 14.3799 15.8752V17.4448C14.3799 17.8768 14.2407 18.1264 13.1295 18.1264C11.2743 18.1264 9.23914 17.0008 7.79194 14.9248C5.62234 11.884 5.02954 9.58482 5.02954 9.12162C5.02954 8.86242 5.13034 8.62722 5.62954 8.62722H7.37914C7.82554 8.62722 7.99354 8.82162 8.16154 9.30642C9.01834 11.8 10.4607 13.9792 11.0535 13.9792C11.2743 13.9792 11.3775 13.876 11.3775 13.312V10.7344C11.3375 9.99993 11.0809 9.68285 10.8909 9.44798C10.7735 9.30295 10.6815 9.18927 10.6815 9.02802C10.6815 8.83122 10.8495 8.62482 11.1279 8.62482H13.8783C14.2479 8.62482 14.3775 8.82402 14.3775 9.26802V12.7336C14.3775 13.1056 14.5383 13.2352 14.6487 13.2352C14.8719 13.2352 15.0567 13.1056 15.4647 12.6976C16.7247 11.2888 17.6151 9.11922 17.6151 9.11922C17.7255 8.86002 17.9319 8.62482 18.3759 8.62482H20.1255Z" fill="white"/>
<path fill-rule="evenodd" clip-rule="evenodd" d="M13 26C5.8214 26 0 20.1786 0 13C0 5.8214 5.8214 0 13 0C20.1786 0 26 5.8214 26 13C26 20.1786 20.1786 26 13 26ZM13 24.5C6.64983 24.5 1.5 19.3502 1.5 13C1.5 6.64983 6.64983 1.5 13 1.5C19.3502 1.5 24.5 6.64983 24.5 13C24.5 19.3502 19.3502 24.5 13 24.5Z" fill="white"/>
</svg>
