<svg width="60" height="19" viewBox="0 0 60 19" fill="none" xmlns="http://www.w3.org/2000/svg">
<path d="M13.6522 16.323C13.8135 15.8917 13.8945 15.1864 13.8945 14.2077V10.0843C13.8945 9.13459 13.8135 8.44038 13.6522 8.00112C13.4908 7.56242 13.2062 7.34279 12.799 7.34279C12.4057 7.34279 12.1281 7.56242 11.9668 8.00112C11.8053 8.44038 11.7247 9.13459 11.7247 10.0843V14.2077C11.7247 15.1864 11.8017 15.8917 11.9565 16.323C12.1106 16.7549 12.3915 16.9706 12.799 16.9706C13.2062 16.9706 13.4908 16.7549 13.6522 16.323ZM10.3871 18.3956C9.80381 17.9932 9.3894 17.3666 9.14404 16.5173C8.89813 15.6686 8.77545 14.5386 8.77545 13.1282V11.207C8.77545 9.7822 8.91563 8.63783 9.19654 7.77465C9.47744 6.91111 9.91603 6.28143 10.5134 5.88562C11.1102 5.48999 11.8932 5.29199 12.8624 5.29199C13.8173 5.29199 14.5826 5.4935 15.1585 5.89652C15.7342 6.29936 16.1557 6.92923 16.4227 7.78519C16.6891 8.64189 16.8228 9.7822 16.8228 11.207V13.1282C16.8228 14.5386 16.6927 15.6723 16.4331 16.5284C16.1732 17.3849 15.7517 18.0107 15.169 18.4064C14.5861 18.8022 13.7962 19 12.799 19C11.7736 19 10.9695 18.7985 10.3871 18.3956Z" fill="#31B5FF"/>
<path d="M55.5019 7.59189C55.3547 7.77898 55.256 8.08495 55.2071 8.50923C55.1577 8.93389 55.1337 9.57799 55.1337 10.4415V11.3916H57.261V10.4415C57.261 9.59241 57.233 8.94831 57.1769 8.50923C57.1206 8.07053 57.019 7.76142 56.8716 7.58117C56.7239 7.40129 56.4957 7.31144 56.1868 7.31144C55.8776 7.31144 55.6495 7.40498 55.5019 7.59189ZM55.1337 13.1618V13.831C55.1337 14.6803 55.1577 15.3168 55.2071 15.7413C55.256 16.166 55.3578 16.4756 55.5126 16.6699C55.6672 16.864 55.9055 16.9615 56.229 16.9615C56.664 16.9615 56.9628 16.7884 57.1242 16.4431C57.2855 16.0976 57.3734 15.5222 57.3874 14.716L59.8945 14.867C59.9086 14.9826 59.9156 15.1406 59.9156 15.342C59.9156 16.5655 59.5892 17.4795 58.9359 18.0838C58.2832 18.6882 57.3593 18.9905 56.1657 18.9905C54.7334 18.9905 53.7288 18.5301 53.1531 17.6087C52.5771 16.688 52.2891 15.2632 52.2891 13.3344V11.0243C52.2891 9.03834 52.5877 7.58875 53.1847 6.67455C53.7815 5.76053 54.8034 5.30353 56.2501 5.30353C57.2469 5.30353 58.0126 5.49062 58.5462 5.86499C59.0797 6.23936 59.4557 6.82208 59.6735 7.61352C59.8912 8.40515 60 9.49905 60 10.8948V13.1618H55.1337Z" fill="#31B5FF"/>
<path d="M3.30753 12.9104L0 0.670157H2.88608L4.0447 6.21803C4.33986 7.58572 4.55726 8.75135 4.6978 9.71528H4.78205C4.88038 9.02459 5.09814 7.86636 5.43515 6.23966L6.63599 0.670157H9.52225L6.17251 12.9104V18.7826H3.30753V12.9104Z" fill="#31B5FF"/>
<path d="M26.211 5.5462V18.7794H23.9356L23.6827 17.1605H23.6197C23.0016 18.3838 22.0744 18.9954 20.8388 18.9954C19.982 18.9954 19.35 18.7077 18.9426 18.132C18.5353 17.5565 18.3318 16.6567 18.3318 15.4336V5.5462H21.2391V15.2606C21.2391 15.851 21.3025 16.272 21.4287 16.5234C21.555 16.7756 21.7658 16.9015 22.0607 16.9015C22.3137 16.9015 22.5558 16.8224 22.7874 16.6639C23.0193 16.5055 23.1912 16.3044 23.3038 16.0596V5.5462H26.211Z" fill="#31B5FF"/>
<path d="M41.1232 5.5462V18.7794H38.848L38.595 17.1605H38.5322C37.9136 18.3838 36.9868 18.9954 35.751 18.9954C34.8944 18.9954 34.2624 18.7077 33.855 18.132C33.4476 17.5565 33.2441 16.6567 33.2441 15.4336V5.5462H36.1513V15.2606C36.1513 15.851 36.2145 16.272 36.3407 16.5234C36.4674 16.7756 36.6781 16.9015 36.9729 16.9015C37.2259 16.9015 37.4681 16.8224 37.6998 16.6639C37.9315 16.5055 38.1034 16.3044 38.216 16.0596V5.5462H41.1232Z" fill="#31B5FF"/>
<path d="M34.1112 3.06649H31.2249V18.7824H28.3811V3.06649H25.4948V0.670157H34.1112V3.06649Z" fill="#31B5FF"/>
<path d="M48.0802 13.0615C48.0802 14.026 48.0411 14.7816 47.9641 15.3282C47.8868 15.8755 47.7569 16.2641 47.5744 16.4939C47.3918 16.7242 47.1455 16.8394 46.8372 16.8394C46.598 16.8394 46.3769 16.7819 46.1734 16.6667C45.9696 16.5515 45.8049 16.3789 45.6782 16.1485V8.636C45.7765 8.27642 45.945 7.98118 46.1839 7.75082C46.4228 7.52103 46.6822 7.40548 46.9633 7.40548C47.2583 7.40548 47.4863 7.52435 47.648 7.76155C47.8093 7.99911 47.9218 8.39843 47.9852 8.96008C48.0485 9.52117 48.0802 10.3198 48.0802 11.356V13.0615ZM50.745 7.66375C50.5691 6.82923 50.2847 6.22469 49.8916 5.85014C49.4983 5.47633 48.9576 5.28905 48.2695 5.28905C47.7358 5.28905 47.2373 5.44397 46.7739 5.75327C46.3104 6.06274 45.9521 6.46928 45.6993 6.97288H45.678L45.6782 0H42.8766V18.7813H45.2779L45.573 17.5293H45.636C45.8606 17.9754 46.1976 18.328 46.6472 18.5872C47.0966 18.8462 47.5955 18.9758 48.1432 18.9758C49.1261 18.9758 49.8494 18.5114 50.313 17.5833C50.7765 16.6549 51.0084 15.2053 51.0084 13.2332V11.1396C51.0084 9.65724 50.9203 8.49864 50.745 7.66375Z" fill="#31B5FF"/>
</svg>
