<svg width="60" height="20" viewBox="0 0 60 20" fill="none" xmlns="http://www.w3.org/2000/svg">
<path d="M13.6522 16.823C13.8135 16.3917 13.8945 15.6864 13.8945 14.7077V10.5843C13.8945 9.63459 13.8135 8.94038 13.6522 8.50112C13.4908 8.06242 13.2062 7.84279 12.799 7.84279C12.4057 7.84279 12.1281 8.06242 11.9668 8.50112C11.8053 8.94038 11.7247 9.63459 11.7247 10.5843V14.7077C11.7247 15.6864 11.8017 16.3917 11.9565 16.823C12.1106 17.2549 12.3915 17.4706 12.799 17.4706C13.2062 17.4706 13.4908 17.2549 13.6522 16.823ZM10.3871 18.8956C9.80381 18.4932 9.3894 17.8666 9.14404 17.0173C8.89813 16.1686 8.77545 15.0386 8.77545 13.6282V11.707C8.77545 10.2822 8.91563 9.13783 9.19654 8.27465C9.47744 7.41111 9.91603 6.78143 10.5134 6.38562C11.1102 5.98999 11.8932 5.79199 12.8624 5.79199C13.8173 5.79199 14.5826 5.9935 15.1585 6.39652C15.7342 6.79936 16.1557 7.42923 16.4227 8.28519C16.6891 9.14189 16.8228 10.2822 16.8228 11.707V13.6282C16.8228 15.0386 16.6927 16.1723 16.4331 17.0284C16.1732 17.8849 15.7517 18.5107 15.169 18.9064C14.5861 19.3022 13.7962 19.5 12.799 19.5C11.7736 19.5 10.9695 19.2985 10.3871 18.8956Z" fill="white"/>
<path d="M55.5019 8.09189C55.3547 8.27898 55.256 8.58495 55.2071 9.00923C55.1577 9.43389 55.1337 10.078 55.1337 10.9415V11.8916H57.261V10.9415C57.261 10.0924 57.233 9.44831 57.1769 9.00923C57.1206 8.57053 57.019 8.26142 56.8716 8.08117C56.7239 7.90129 56.4957 7.81144 56.1868 7.81144C55.8776 7.81144 55.6495 7.90498 55.5019 8.09189ZM55.1337 13.6618V14.331C55.1337 15.1803 55.1577 15.8168 55.2071 16.2413C55.256 16.666 55.3578 16.9756 55.5126 17.1699C55.6672 17.364 55.9055 17.4615 56.229 17.4615C56.664 17.4615 56.9628 17.2884 57.1242 16.9431C57.2855 16.5976 57.3734 16.0222 57.3874 15.216L59.8945 15.367C59.9086 15.4826 59.9156 15.6406 59.9156 15.842C59.9156 17.0655 59.5892 17.9795 58.9359 18.5838C58.2832 19.1882 57.3593 19.4905 56.1657 19.4905C54.7334 19.4905 53.7288 19.0301 53.1531 18.1087C52.5771 17.188 52.2891 15.7632 52.2891 13.8344V11.5243C52.2891 9.53834 52.5877 8.08875 53.1847 7.17455C53.7815 6.26053 54.8034 5.80353 56.2501 5.80353C57.2469 5.80353 58.0126 5.99062 58.5462 6.36499C59.0797 6.73936 59.4557 7.32208 59.6735 8.11352C59.8912 8.90515 60 9.99905 60 11.3948V13.6618H55.1337Z" fill="white"/>
<path d="M3.30753 13.4104L0 1.17016H2.88608L4.0447 6.71803C4.33986 8.08572 4.55726 9.25135 4.6978 10.2153H4.78205C4.88038 9.52459 5.09814 8.36636 5.43515 6.73966L6.63599 1.17016H9.52225L6.17251 13.4104V19.2826H3.30753V13.4104Z" fill="white"/>
<path d="M26.211 6.0462V19.2794H23.9356L23.6827 17.6605H23.6197C23.0016 18.8838 22.0744 19.4954 20.8388 19.4954C19.982 19.4954 19.35 19.2077 18.9426 18.632C18.5353 18.0565 18.3318 17.1567 18.3318 15.9336V6.0462H21.2391V15.7606C21.2391 16.351 21.3025 16.772 21.4287 17.0234C21.555 17.2756 21.7658 17.4015 22.0607 17.4015C22.3137 17.4015 22.5558 17.3224 22.7874 17.1639C23.0193 17.0055 23.1912 16.8044 23.3038 16.5596V6.0462H26.211Z" fill="white"/>
<path d="M41.1232 6.0462V19.2794H38.848L38.595 17.6605H38.5322C37.9136 18.8838 36.9868 19.4954 35.751 19.4954C34.8944 19.4954 34.2624 19.2077 33.855 18.632C33.4476 18.0565 33.2441 17.1567 33.2441 15.9336V6.0462H36.1513V15.7606C36.1513 16.351 36.2145 16.772 36.3407 17.0234C36.4674 17.2756 36.6781 17.4015 36.9729 17.4015C37.2259 17.4015 37.4681 17.3224 37.6998 17.1639C37.9315 17.0055 38.1034 16.8044 38.216 16.5596V6.0462H41.1232Z" fill="white"/>
<path d="M34.1112 3.56649H31.2249V19.2824H28.3811V3.56649H25.4948V1.17016H34.1112V3.56649Z" fill="white"/>
<path d="M48.0802 13.5615C48.0802 14.526 48.0411 15.2816 47.9641 15.8282C47.8868 16.3755 47.7569 16.7641 47.5744 16.9939C47.3918 17.2242 47.1455 17.3394 46.8372 17.3394C46.598 17.3394 46.3769 17.2819 46.1734 17.1667C45.9696 17.0515 45.8049 16.8789 45.6782 16.6485V9.136C45.7765 8.77642 45.945 8.48118 46.1839 8.25082C46.4228 8.02103 46.6822 7.90548 46.9633 7.90548C47.2583 7.90548 47.4863 8.02435 47.648 8.26155C47.8093 8.49911 47.9218 8.89843 47.9852 9.46008C48.0485 10.0212 48.0802 10.8198 48.0802 11.856V13.5615ZM50.745 8.16375C50.5691 7.32923 50.2847 6.72469 49.8916 6.35014C49.4983 5.97633 48.9576 5.78905 48.2695 5.78905C47.7358 5.78905 47.2373 5.94397 46.7739 6.25327C46.3104 6.56274 45.9521 6.96928 45.6993 7.47288H45.678L45.6782 0.5H42.8766V19.2813H45.2779L45.573 18.0293H45.636C45.8606 18.4754 46.1976 18.828 46.6472 19.0872C47.0966 19.3462 47.5955 19.4758 48.1432 19.4758C49.1261 19.4758 49.8494 19.0114 50.313 18.0833C50.7765 17.1549 51.0084 15.7053 51.0084 13.7332V11.6396C51.0084 10.1572 50.9203 8.99864 50.745 8.16375Z" fill="white"/>
</svg>
