<svg width="22" height="26" viewBox="0 0 22 26" fill="none" xmlns="http://www.w3.org/2000/svg">
<path d="M20.434 6.66226C20.4086 6.25208 20.0815 5.93305 19.685 5.93305H15.7153V4.71667C15.7153 2.28088 13.4877 0.298828 10.7504 0.298828C8.01312 0.298828 5.78559 2.28088 5.78559 4.71667V5.93305H1.81587C1.41938 5.93305 1.09223 6.25208 1.06684 6.66226L0.00141374 24.363C-0.0112815 24.5777 0.0619606 24.7874 0.203562 24.9444C0.345163 25.1003 0.543406 25.1895 0.750437 25.1895H20.7504C20.9574 25.1895 21.1557 25.1003 21.2973 24.9444C21.4389 24.7874 21.5121 24.5777 21.4994 24.363L20.434 6.66226ZM7.28559 4.71667C7.28559 3.13873 8.84027 1.85449 10.7504 1.85449C12.6606 1.85449 14.2153 3.13873 14.2153 4.71667V5.93305H7.28559V4.71667ZM5.78559 7.48871V9.17806C5.78559 9.60749 6.12153 9.9559 6.53559 9.9559C6.94965 9.9559 7.28559 9.60749 7.28559 9.17806V7.48871H14.2153V9.17806C14.2153 9.60749 14.5512 9.9559 14.9653 9.9559C15.3793 9.9559 15.7153 9.60749 15.7153 9.17806V7.48871H18.9799L19.6298 18.2751H1.8711L2.52094 7.48871H5.78559ZM1.54829 23.6338L1.80866 19.3122H19.6922L19.9526 23.6338H1.54829Z" fill="white"/>
</svg>
