<svg width="18" height="18" viewBox="0 0 18 18" fill="none" xmlns="http://www.w3.org/2000/svg">
<path d="M8.97935 5.91524C9.45185 5.91524 9.74922 5.59124 9.73535 5.18624C9.73535 4.76812 9.45185 4.44412 9.00672 4.44412C8.5751 4.44412 8.2646 4.76774 8.2646 5.18624C8.2646 5.59124 8.56122 5.91524 8.97935 5.91524Z" fill="#31B5FF"/>
<path d="M9.60093 13.1029V7.55438C9.60093 7.06575 9.20606 7.0245 9.09431 7.02263H8.88206C8.88206 7.02263 8.41293 7.02713 8.41293 7.45463V13.1933C8.42156 13.323 8.47855 13.5559 8.7883 13.5559H9.23118C9.3628 13.5454 9.60093 13.4768 9.60093 13.1029Z" fill="#31B5FF"/>
<path d="M9 0C4.02975 0 0 4.029 0 9C0 13.9703 4.02937 18 9 18C13.971 18 18 13.9703 18 9C18 4.029 13.971 0 9 0ZM9 16.5C4.85813 16.5 1.5 13.1419 1.5 9C1.5 4.85737 4.85813 1.5 9 1.5C13.1426 1.5 16.5 4.85775 16.5 9C16.5 13.1419 13.1426 16.5 9 16.5Z" fill="#31B5FF"/>
</svg>
