<svg width="80" height="80" viewBox="0 0 80 80" fill="none" xmlns="http://www.w3.org/2000/svg">
<path d="M40 78.4615C49.5513 78.4615 58.2894 74.98 65.0145 69.2168L66.3144 70.1263C59.2812 76.2747 50.0756 80 40 80C17.9086 80 0 62.0914 0 40C0 17.9086 17.9086 0 40 0C62.0914 0 80 17.9086 80 40C80 47.0544 78.1738 53.6823 74.9685 59.4367L73.8914 58.2C76.8071 52.7818 78.4615 46.5841 78.4615 40C78.4615 18.7583 61.2417 1.53846 40 1.53846C18.7583 1.53846 1.53846 18.7583 1.53846 40C1.53846 61.2417 18.7583 78.4615 40 78.4615Z" fill="white"/>
<path d="M37.6923 57.6923H20L40 12.3077L62.3077 57.6923L39.2308 44.6154H49.2308L40 26.1538L29.2308 52.3077L37.6923 57.6923Z" fill="white"/>
<path fill-rule="evenodd" clip-rule="evenodd" d="M40 75.3846C50.0994 75.3846 59.2106 71.1535 65.6576 64.3673L73.8462 68.4615L69.2478 59.9218C73.1203 54.2474 75.3846 47.3881 75.3846 40C75.3846 20.4576 59.5424 4.61538 40 4.61538C20.4576 4.61538 4.61538 20.4576 4.61538 40C4.61538 59.5424 20.4576 75.3846 40 75.3846ZM40 73.0769C58.2679 73.0769 73.0769 58.2679 73.0769 40C73.0769 21.7321 58.2679 6.92308 40 6.92308C21.7321 6.92308 6.92308 21.7321 6.92308 40C6.92308 58.2679 21.7321 73.0769 40 73.0769Z" fill="white"/>
</svg>
